<svg xmlns="http://www.w3.org/2000/svg" aria-hidden="true" style="position:absolute;width:0;height:0;overflow:hidden">
  <defs>
    <symbol id="icon-heart" viewBox="0 0 28 28">
      <path d="M26 9.312c0-4.391-2.969-5.313-5.469-5.313-2.328 0-4.953 2.516-5.766 3.484-.375.453-1.156.453-1.531 0-.812-.969-3.437-3.484-5.766-3.484-2.5 0-5.469.922-5.469 5.313 0 2.859 2.891 5.516 2.922 5.547l9.078 8.75 9.063-8.734C23.109 14.828 26 12.172 26 9.312zm2 0c0 3.75-3.437 6.891-3.578 7.031l-9.734 9.375c-.187.187-.438.281-.688.281s-.5-.094-.688-.281l-9.75-9.406c-.125-.109-3.563-3.25-3.563-7 0-4.578 2.797-7.313 7.469-7.313 2.734 0 5.297 2.156 6.531 3.375 1.234-1.219 3.797-3.375 6.531-3.375 4.672 0 7.469 2.734 7.469 7.313z"/>
    </symbol>
    <symbol id="icon-menu" viewBox="0 0 24 24">
      <path d="M3 13h18a1 1 0 0 0 0-2H3a1 1 0 0 0 0 2zm0-6h18a1 1 0 0 0 0-2H3a1 1 0 0 0 0 2zm0 12h18a1 1 0 0 0 0-2H3a1 1 0 0 0 0 2z"/>
    </symbol>
    <symbol id="icon-shopping-cart" viewBox="0 0 24 24">
      <path d="M11 21c0-.552-.225-1.053-.586-1.414a1.996 1.996 0 0 0-2.828 0 1.996 1.996 0 0 0 0 2.828 1.996 1.996 0 0 0 2.828 0c.361-.361.586-.862.586-1.414zm11 0c0-.552-.225-1.053-.586-1.414a1.996 1.996 0 0 0-2.828 0 1.996 1.996 0 0 0 0 2.828 1.996 1.996 0 0 0 2.828 0c.361-.361.586-.862.586-1.414zM7.221 7h14.57l-1.371 7.191A1 1 0 0 1 19.4 15H9.666a1.016 1.016 0 0 1-.626-.203.99.99 0 0 1-.379-.603zM1 2h3.18l.848 4.239C5.136 6.676 5.53 7 6 7h1.221l-.4-2H6a1 1 0 0 0-.971 1.239L6.7 14.586A3.009 3.009 0 0 0 9.694 17H19.4a2.97 2.97 0 0 0 1.995-.727 3.02 3.02 0 0 0 .985-1.683l1.602-8.402A1 1 0 0 0 23 5H6.82L5.98.804A1 1 0 0 0 5 0H1a1 1 0 0 0 0 2z"/>
    </symbol>
    <symbol id="icon-circle-thin" viewBox="0 0 24 28">
      <path d="M12 4C6.484 4 2 8.484 2 14s4.484 10 10 10 10-4.484 10-10S17.516 4 12 4zm12 10c0 6.625-5.375 12-12 12S0 20.625 0 14 5.375 2 12 2s12 5.375 12 12z"/>
    </symbol>
    <symbol id="icon-circle" viewBox="0 0 24 28">
      <path d="M24 14c0 6.625-5.375 12-12 12S0 20.625 0 14 5.375 2 12 2s12 5.375 12 12z"/>
    </symbol>
    <symbol id="icon-chevron-tright" viewBox="0 0 20 20">
      <path d="M13.25 10 6.109 2.58a.697.697 0 0 1 0-.979.68.68 0 0 1 .969 0l7.83 7.908a.697.697 0 0 1 0 .979l-7.83 7.908c-.268.271-.701.27-.969 0s-.268-.707 0-.979L13.25 10z"/>
    </symbol>
    <symbol id="icon-chevron-left" viewBox="0 0 20 20">
      <path d="M13.891 17.418c.268.272.268.709 0 .979s-.701.271-.969 0l-7.83-7.908a.697.697 0 0 1 0-.979l7.83-7.908c.268-.27.701-.27.969 0s.268.709 0 .979L6.75 10l7.141 7.418z"/>
    </symbol>
    <symbol id="icon-evaluate" viewBox="0 0 32 32">
      <path fill="#4295e4" d="M31.604 16.967a2.018 2.018 0 0 1 0-1.934 3.28 3.28 0 0 0-.818-4.11 2.022 2.022 0 0 1-.74-1.787 3.281 3.281 0 0 0-2.328-3.485 2.022 2.022 0 0 1-1.368-1.368 3.28 3.28 0 0 0-3.485-2.328 2.02 2.02 0 0 1-1.787-.74 3.28 3.28 0 0 0-4.11-.818 2.024 2.024 0 0 1-1.934 0 3.28 3.28 0 0 0-4.11.818 2.022 2.022 0 0 1-1.787.74 3.281 3.281 0 0 0-3.485 2.328 2.022 2.022 0 0 1-1.368 1.368 3.28 3.28 0 0 0-2.328 3.485 2.022 2.022 0 0 1-.74 1.787 3.28 3.28 0 0 0-.818 4.11 2.024 2.024 0 0 1 0 1.934 3.28 3.28 0 0 0 .818 4.11c.535.434.812 1.102.74 1.787a3.281 3.281 0 0 0 2.328 3.485c.66.196 1.172.707 1.368 1.368a3.28 3.28 0 0 0 3.485 2.328 2.02 2.02 0 0 1 1.787.74 3.28 3.28 0 0 0 4.11.818 2.024 2.024 0 0 1 1.934 0 3.277 3.277 0 0 0 4.11-.818 2.023 2.023 0 0 1 1.787-.74 3.281 3.281 0 0 0 3.485-2.328 2.022 2.022 0 0 1 1.368-1.368 3.28 3.28 0 0 0 2.328-3.485 2.022 2.022 0 0 1 .74-1.787 3.28 3.28 0 0 0 .818-4.11zm-1.099.596a2.028 2.028 0 0 1-.506 2.543 3.267 3.267 0 0 0-1.196 2.888 2.029 2.029 0 0 1-1.441 2.156 3.266 3.266 0 0 0-2.21 2.211 2.03 2.03 0 0 1-2.156 1.441 3.267 3.267 0 0 0-2.888 1.196 2.03 2.03 0 0 1-2.544.506 3.278 3.278 0 0 0-3.126 0 2.028 2.028 0 0 1-2.543-.506 3.267 3.267 0 0 0-2.888-1.196 2.029 2.029 0 0 1-2.156-1.441 3.27 3.27 0 0 0-2.21-2.211A2.031 2.031 0 0 1 3.2 22.994a3.27 3.27 0 0 0-1.196-2.888 2.03 2.03 0 0 1-.506-2.544 3.266 3.266 0 0 0 0-3.126 2.028 2.028 0 0 1 .506-2.543A3.267 3.267 0 0 0 3.2 9.005a2.029 2.029 0 0 1 1.441-2.156 3.266 3.266 0 0 0 2.21-2.211 2.03 2.03 0 0 1 2.156-1.441 3.27 3.27 0 0 0 2.888-1.196 2.03 2.03 0 0 1 2.544-.506 3.266 3.266 0 0 0 3.126 0 2.028 2.028 0 0 1 2.543.506 3.266 3.266 0 0 0 2.888 1.196 2.03 2.03 0 0 1 2.156 1.441 3.267 3.267 0 0 0 2.21 2.21 2.031 2.031 0 0 1 1.441 2.156 3.267 3.267 0 0 0 1.196 2.888 2.03 2.03 0 0 1 .506 2.544 3.266 3.266 0 0 0 0 3.126z" style="fill:var(--color1, #4295e4)"/>
      <path fill="#4295e4" d="M21.976 4.875a12.721 12.721 0 0 0-7.731-1.378 12.516 12.516 0 0 0-7.173 3.576 12.542 12.542 0 0 0-3.518 6.798 12.598 12.598 0 0 0 .976 7.413.625.625 0 1 0 1.135-.522c-1.983-4.306-1.062-9.451 2.291-12.805C11.479 4.434 17 3.62 21.383 5.977a.624.624 0 1 0 .592-1.101zM7.983 24.07l-.027-.027a.625.625 0 0 0-.884.884l.027.027a.623.623 0 0 0 .884 0 .625.625 0 0 0 0-.884zM27.08 9.942a.624.624 0 1 0-1.096.6c2.408 4.399 1.61 9.951-1.94 13.502a11.31 11.31 0 0 1-12.627 2.371.626.626 0 0 0-.504 1.144 12.577 12.577 0 0 0 5.075 1.068c.748 0 1.499-.066 2.246-.2a12.547 12.547 0 0 0 6.694-3.5 12.511 12.511 0 0 0 3.582-7.218 12.72 12.72 0 0 0-1.43-7.768zM24.944 7.089l-.016-.016a.625.625 0 0 0-.884.884l.016.016a.623.623 0 0 0 .884 0 .625.625 0 0 0 0-.884z" style="fill:var(--color1, #4295e4)"/>
      <path fill="#4295e4" d="M23.938 16.625c0-.709-.424-1.32-1.031-1.595a1.752 1.752 0 0 0-1.622-2.405h-2.718l.178-.53c.282-.837.215-1.73-.19-2.515s-1.092-1.359-1.937-1.616a.626.626 0 0 0-.77.385l-.957 2.644a2.982 2.982 0 0 1-1.379 1.606l-.76.414a1.403 1.403 0 0 0-.969-.389H9.092c-.775 0-1.406.631-1.406 1.406v7.437c0 .775.631 1.406 1.406 1.406h2.691c.43 0 .816-.194 1.074-.499l.286.112a5.593 5.593 0 0 0 2.049.387h5.307a1.752 1.752 0 0 0 1.618-2.416 1.753 1.753 0 0 0 .864-2.275c.567-.29.956-.88.956-1.559zm-11.997 4.844c0 .086-.07.156-.156.156H9.094a.156.156 0 0 1-.156-.156v-7.437c0-.086.07-.156.156-.156h2.691c.063 0 .118.038.142.093l.012.049.001.015v7.437zm10.247-4.344h-2.813a.625.625 0 0 0 0 1.25h1.999a.5.5 0 0 1 0 1h-1.999a.625.625 0 0 0 0 1.25H20.5a.5.5 0 0 1 0 1h-5.307a4.345 4.345 0 0 1-1.593-.301l-.409-.161v-6.965l.92-.501a4.226 4.226 0 0 0 1.957-2.278l.725-2.003c.273.184.496.435.651.736.248.482.289 1.03.116 1.544l-.456 1.354a.623.623 0 0 0 .593.824h3.588a.5.5 0 0 1 0 1h-1.91a.625.625 0 0 0 0 1.25h2.813a.5.5 0 0 1 0 1z" style="fill:var(--color1, #4295e4)"/>
    </symbol>
    <symbol id="icon-product-return" viewBox="0 0 32 32">
      <path fill="#4295e4" d="M27.925 13.565a.437.437 0 0 0-.387-.234H4.463a.436.436 0 0 0-.387.234l-2.887 5.496a.438.438 0 0 0 .387.641h2.45v9.65c0 .242.196.437.438.438h23.073a.438.438 0 0 0 .438-.438v-9.65h2.45a.436.436 0 0 0 .387-.641l-2.887-5.496zm-23.197.641h10.547l-2.425 4.622H2.3l2.428-4.622zm.172 5.497h8.213c.163 0 .312-.09.387-.234l2.062-3.925v13.373H4.9v-9.214zm22.2 9.213H16.438V15.543l2.063 3.926a.437.437 0 0 0 .387.234h8.213v9.213zm-7.95-10.088-2.425-4.622h10.549l2.427 4.622h-10.55zM16 11.966a4.878 4.878 0 1 0-4.878-4.878A4.883 4.883 0 0 0 16 11.966zm0-8.882a4.003 4.003 0 1 1 0 8.005 4.003 4.003 0 0 1 0-8.005z" style="fill:var(--color1, #4295e4)"/>
      <path fill="#4295e4" d="M16.445 8.306h-1.97a.438.438 0 1 0 0 .876h1.969a1.804 1.804 0 0 0 0-3.607h-.912l.304-.304a.439.439 0 0 0-.607-.631l-.011.011-1.05 1.05a.436.436 0 0 0 0 .618l1.05 1.05a.438.438 0 1 0 .619-.619l-.304-.304h.913a.928.928 0 0 1 0 1.857v.003z" style="fill:var(--color1, #4295e4)"/>
    </symbol>
    <symbol id="icon-Logo" viewBox="0 0 39 32">
      <path fill="#fff" d="M14.304 9.96h3.162v6.324c-1.774 1.944-4.318 2.916-7.634 2.916-2.802 0-5.141-.909-7.017-2.727S0 12.383 0 9.656s.951-5.011 2.853-6.854C4.781.934 7.107 0 9.832 0s4.987.77 6.786 2.31l-1.697 2.386c-1.311-1.086-2.917-1.628-4.819-1.628-1.928 0-3.547.619-4.858 1.856-1.285 1.212-1.928 2.79-1.928 4.734s.617 3.522 1.851 4.734c1.26 1.187 2.815 1.78 4.665 1.78 1.799 0 3.29-.379 4.472-1.136V9.961z" style="fill:var(--color1, #fff)"/>
      <path fill="none" stroke="#fff" stroke-width=".561" d="M21.022 0v12.8" style="stroke:var(--color1, #fff)"/>
      <path fill="none" stroke="#4295e4" stroke-width=".561" d="M21.022 12.8v12.8" style="stroke:var(--color2, #4295e4)"/>
      <path fill="#4295e4" d="M32.296 32c-3.067 0-5.827-.933-8.28-2.8l1.942-3.05c2.181 1.633 4.328 2.45 6.44 2.45.886 0 1.584-.2 2.096-.6.545-.433.818-.967.818-1.6 0-.933-1.261-1.767-3.782-2.5a1.964 1.964 0 0 0-.256-.1.403.403 0 0 0-.153-.05c-3.953-1.033-5.929-2.783-5.929-5.25 0-1.733.664-3.117 1.993-4.15 1.363-1.033 3.152-1.55 5.367-1.55 2.181 0 4.259.633 6.236 1.9l-1.482 2.9c-1.533-1-3.22-1.5-5.06-1.5-2.147 0-3.22.667-3.22 2 0 .567.204.983.613 1.25.443.233 1.159.467 2.147.7 1.499.4 2.76.8 3.782 1.2.681.3 1.278.617 1.789.95 1.295.867 1.942 2.183 1.942 3.95 0 1.733-.664 3.15-1.993 4.25-1.295 1.067-2.965 1.6-5.009 1.6z" style="fill:var(--color2, #4295e4)"/>
    </symbol>
    <symbol id="icon-facebook" viewBox="0 0 32 32">
      <path d="M21.329 5.313h2.921V.225C23.746.156 22.013 0 19.994 0c-4.212 0-7.097 2.649-7.097 7.519V12H8.249v5.688h4.648V32h5.699V17.689h4.46l.708-5.688h-5.169V8.082c.001-1.644.444-2.769 2.735-2.769z"/>
    </symbol>
    <symbol id="icon-Twitter" viewBox="0 0 32 32">
      <path d="M31.524 6.582a12.42 12.42 0 0 1-3.567.977 6.23 6.23 0 0 0 2.731-3.437 12.4 12.4 0 0 1-3.944 1.507 6.209 6.209 0 0 0-7.468-1.23 6.214 6.214 0 0 0-3.116 6.897A17.636 17.636 0 0 1 3.358 4.805a6.213 6.213 0 0 0-.84 3.123 6.208 6.208 0 0 0 2.763 5.171 6.194 6.194 0 0 1-2.813-.777v.08a6.216 6.216 0 0 0 4.982 6.091 6.255 6.255 0 0 1-2.805.107 6.22 6.22 0 0 0 5.803 4.312 12.465 12.465 0 0 1-7.715 2.66c-.495 0-.991-.029-1.483-.087a17.56 17.56 0 0 0 9.52 2.791c11.427 0 17.673-9.464 17.673-17.672 0-.267-.007-.536-.019-.803a12.63 12.63 0 0 0 3.097-3.213l.003-.004z"/>
    </symbol>
    <symbol id="icon-instagram" viewBox="0 0 32 32">
      <path d="M31.969 9.408c-.075-1.7-.35-2.869-.744-3.882a7.803 7.803 0 0 0-1.85-2.838A7.867 7.867 0 0 0 26.543.844C25.524.45 24.361.175 22.661.1 20.948.019 20.404 0 16.06 0s-4.888.019-6.595.094c-1.7.075-2.869.35-3.882.744a7.803 7.803 0 0 0-2.838 1.85A7.867 7.867 0 0 0 .901 5.52C.507 6.539.232 7.702.157 9.402c-.081 1.713-.1 2.257-.1 6.601s.019 4.888.094 6.595c.075 1.7.35 2.869.744 3.882a7.895 7.895 0 0 0 1.85 2.838 7.867 7.867 0 0 0 2.832 1.844c1.019.394 2.182.669 3.882.744 1.706.075 2.25.094 6.595.094s4.888-.019 6.595-.094c1.7-.075 2.869-.35 3.882-.744a8.181 8.181 0 0 0 4.682-4.682c.394-1.019.669-2.182.744-3.882.075-1.707.094-2.25.094-6.595s-.006-4.888-.081-6.595zm-2.882 13.065c-.069 1.563-.331 2.407-.55 2.969a5.31 5.31 0 0 1-3.038 3.038c-.563.219-1.413.481-2.969.55-1.688.075-2.194.094-6.464.094s-4.782-.019-6.464-.094c-1.563-.069-2.407-.331-2.969-.55a4.926 4.926 0 0 1-1.838-1.194 4.974 4.974 0 0 1-1.194-1.838c-.219-.563-.481-1.413-.55-2.969-.075-1.688-.094-2.194-.094-6.464s.019-4.782.094-6.464c.069-1.563.331-2.407.55-2.969a4.868 4.868 0 0 1 1.2-1.838A4.974 4.974 0 0 1 6.639 3.55c.563-.219 1.413-.481 2.969-.55 1.688-.075 2.194-.094 6.464-.094 4.276 0 4.782.019 6.464.094 1.563.069 2.407.331 2.969.55a4.914 4.914 0 0 1 1.838 1.194 4.974 4.974 0 0 1 1.194 1.838c.219.563.481 1.413.55 2.969.075 1.688.094 2.194.094 6.464s-.019 4.77-.094 6.458z"/>
      <path d="M16.059 7.783c-4.538 0-8.22 3.682-8.22 8.22s3.682 8.22 8.22 8.22 8.22-3.682 8.22-8.22-3.682-8.22-8.22-8.22zm0 13.552a5.333 5.333 0 0 1 0-10.664 5.333 5.333 0 0 1 0 10.664zM26.524 7.458a1.919 1.919 0 1 1-3.838 0 1.919 1.919 0 0 1 3.838 0z"/>
    </symbol>
    <symbol id="icon-close" viewBox="0 0 24 24">
      <path d="M18.984 6.422 13.406 12l5.578 5.578-1.406 1.406L12 13.406l-5.578 5.578-1.406-1.406L10.594 12 5.016 6.422l1.406-1.406L12 10.594l5.578-5.578z"/>
    </symbol>
    <symbol id="icon-phone" viewBox="0 0 24 32">
      <path d="m19.635 18.487-2.451-.28a1.92 1.92 0 0 0-1.582.55l-1.775 1.775a14.514 14.514 0 0 1-6.359-6.359l1.785-1.785c.415-.415.618-.994.55-1.582l-.28-2.432a1.931 1.931 0 0 0-1.92-1.708H5.934c-1.09 0-1.997.907-1.93 1.997.511 8.24 7.102 14.821 15.332 15.332 1.09.068 1.997-.839 1.997-1.93v-1.669a1.913 1.913 0 0 0-1.698-1.911z"/>
    </symbol>
    <symbol id="icon-Logo-tablet" viewBox="0 0 39 32">
      <path fill="#161c24" d="M13.977 9.96h3.089v6.324c-1.733 1.944-4.22 2.916-7.46 2.916-2.738 0-5.023-.909-6.857-2.727s-2.75-4.09-2.75-6.817c0-2.727.929-5.011 2.788-6.854C4.671.934 6.944 0 9.606 0s4.873.77 6.631 2.31l-1.658 2.386C13.298 3.61 11.728 3.068 9.87 3.068c-1.884 0-3.466.619-4.747 1.856-1.256 1.212-1.884 2.79-1.884 4.734s.603 3.522 1.808 4.734c1.231 1.187 2.75 1.78 4.559 1.78 1.758 0 3.215-.379 4.37-1.136V9.962z" style="fill:var(--color1, #161c24)"/>
      <path fill="none" stroke="#161c24" stroke-width=".762" d="M20.648 0v12.8" style="stroke:var(--color1, #161c24)"/>
      <path fill="none" stroke="#4295e4" stroke-width=".762" d="M20.648 12.8v12.8" style="stroke:var(--color2, #4295e4)"/>
      <path fill="#4295e4" d="M31.558 32c-2.997 0-5.694-.933-8.091-2.8l1.898-3.05c2.131 1.633 4.229 2.45 6.293 2.45.866 0 1.548-.2 2.048-.6.533-.433.799-.967.799-1.6 0-.933-1.232-1.767-3.696-2.5a1.96 1.96 0 0 0-.25-.1.388.388 0 0 0-.15-.05c-3.862-1.033-5.794-2.783-5.794-5.25 0-1.733.649-3.117 1.948-4.15 1.332-1.033 3.08-1.55 5.244-1.55 2.131 0 4.162.633 6.093 1.9l-1.448 2.9a8.721 8.721 0 0 0-4.945-1.5c-2.098 0-3.146.667-3.146 2 0 .567.2.983.599 1.25.433.233 1.132.467 2.098.7 1.465.4 2.697.8 3.696 1.2.666.3 1.249.617 1.748.95 1.265.867 1.898 2.183 1.898 3.95 0 1.733-.649 3.15-1.948 4.25-1.265 1.067-2.897 1.6-4.895 1.6z" style="fill:var(--color2, #4295e4)"/>
    </symbol>
  </defs>
</svg>
